# xmcd CD database file
# Copyright (C) 1993-1998 Ti Kan
#
# Track frame offsets:
#	182
#	8927
#	21135
#	32880
#	44047
#	52897
#	62367
#	71300
#	81715
#	91747
#	100785
#	108287
#	115920
#	124005
#	136565
#	145340
#	155265
#
# Disc length: 2169 seconds
#
# Revision: 1
# Processed by: cddbd v1.4b41PL1 Copyright (c) Steve Scherf et al.
# Submitted via: CDValet v3.31 - Copyright (c) 1997 Greg Leichner
#
DISCID=d8087711
DTITLE=Jim Reeves - 16 Greatest Songs
DYEAR=1900
DGENRE=
TTITLE0=Younder comes a sucker
TTITLE1=Four walls
TTITLE2=Mexican Joe
TTITLE3=Am I loosing you ?
TTITLE4=According to my heart
TTITLE5=I'm getting better
TTITLE6=I'd like to be
TTITLE7=Peace in the valley
TTITLE8=He'll have to go
TTITLE9=Billy bayou
TTITLE10=Blue boy
TTITLE11=I know one
TTITLE12=Waiting for a train
TTITLE13=When God dips his love in my heart
TTITLE14=(Gimme that) Old time religion
TTITLE15=Softly and tenderly
TTITLE16=Bimbo
EXTD=
EXTT0=
EXTT1=
EXTT2=
EXTT3=
EXTT4=
EXTT5=
EXTT6=
EXTT7=
EXTT8=
EXTT9=
EXTT10=
EXTT11=
EXTT12=
EXTT13=
EXTT14=
EXTT15=
EXTT16=
PLAYORDER=
